<mxfile host="app.diagrams.net" agent="Mozilla/5.0 (Windows NT 10.0; Win64; x64) AppleWebKit/537.36 (KHTML, like Gecko) Chrome/138.0.0.0 Safari/537.36" version="27.1.6">
  <diagram name="PÃ¡gina-1" id="LOTvq5G6vjr5RWCh9C1M">
    <mxGraphModel grid="1" page="1" gridSize="10" guides="1" tooltips="1" connect="1" arrows="1" fold="1" pageScale="1" pageWidth="827" pageHeight="1169" math="0" shadow="0">
      <root>
        <mxCell id="0" />
        <mxCell id="1" parent="0" />
        <mxCell id="19whNfM4iRswAMx4-h0D-1" value="CU025 Listado de Encuesta" style="swimlane;childLayout=stackLayout;resizeParent=1;resizeParentMax=0;startSize=20;horizontal=0;horizontalStack=1;fontStyle=1" vertex="1" parent="1">
          <mxGeometry x="380" y="630" width="660" height="480" as="geometry">
            <mxRectangle x="200" y="80" width="40" height="50" as="alternateBounds" />
          </mxGeometry>
        </mxCell>
        <mxCell id="19whNfM4iRswAMx4-h0D-2" style="edgeStyle=orthogonalEdgeStyle;rounded=0;orthogonalLoop=1;jettySize=auto;html=1;entryX=0;entryY=0.5;entryDx=0;entryDy=0;strokeColor=light-dark(#ff0000, #ededed);exitX=1;exitY=0.5;exitDx=0;exitDy=0;" edge="1" parent="19whNfM4iRswAMx4-h0D-1" source="19whNfM4iRswAMx4-h0D-6" target="19whNfM4iRswAMx4-h0D-9">
          <mxGeometry relative="1" as="geometry">
            <Array as="points">
              <mxPoint x="460" y="110" />
            </Array>
            <mxPoint x="290" y="60" as="sourcePoint" />
          </mxGeometry>
        </mxCell>
        <mxCell id="19whNfM4iRswAMx4-h0D-3" value="si" style="edgeLabel;html=1;align=center;verticalAlign=middle;resizable=0;points=[];" vertex="1" connectable="0" parent="19whNfM4iRswAMx4-h0D-2">
          <mxGeometry x="-0.8926" y="3" relative="1" as="geometry">
            <mxPoint x="-9" y="-14" as="offset" />
          </mxGeometry>
        </mxCell>
        <mxCell id="19whNfM4iRswAMx4-h0D-4" value="Administrador" style="swimlane;startSize=20;" vertex="1" parent="19whNfM4iRswAMx4-h0D-1">
          <mxGeometry x="20" width="290" height="480" as="geometry" />
        </mxCell>
        <mxCell id="19whNfM4iRswAMx4-h0D-5" value="" style="ellipse;html=1;shape=startState;fillColor=#000000;strokeColor=#ff0000;fillStyle=auto;" vertex="1" parent="19whNfM4iRswAMx4-h0D-4">
          <mxGeometry x="20" y="25" width="30" height="30" as="geometry" />
        </mxCell>
        <mxCell id="19whNfM4iRswAMx4-h0D-6" value="Pulsa el apartado &quot;Encuenta&quot;" style="rhombus;whiteSpace=wrap;html=1;fontColor=#000000;fillColor=#ffffc0;strokeColor=#ff0000;" vertex="1" parent="19whNfM4iRswAMx4-h0D-4">
          <mxGeometry x="70" y="55" width="190" height="110" as="geometry" />
        </mxCell>
        <mxCell id="19whNfM4iRswAMx4-h0D-7" value="" style="edgeStyle=orthogonalEdgeStyle;html=1;verticalAlign=bottom;endArrow=open;endSize=8;strokeColor=#ff0000;rounded=0;entryX=0.5;entryY=0;entryDx=0;entryDy=0;" edge="1" parent="19whNfM4iRswAMx4-h0D-4" source="19whNfM4iRswAMx4-h0D-5" target="19whNfM4iRswAMx4-h0D-6">
          <mxGeometry relative="1" as="geometry">
            <mxPoint x="155" y="80" as="targetPoint" />
            <mxPoint x="340" y="320" as="sourcePoint" />
          </mxGeometry>
        </mxCell>
        <mxCell id="19whNfM4iRswAMx4-h0D-8" value="Sistema" style="swimlane;startSize=20;" vertex="1" parent="19whNfM4iRswAMx4-h0D-1">
          <mxGeometry x="310" width="350" height="480" as="geometry" />
        </mxCell>
        <mxCell id="19whNfM4iRswAMx4-h0D-9" value="Mostrar apartado" style="rounded=1;whiteSpace=wrap;html=1;arcSize=40;fontColor=#000000;fillColor=#ffffc0;strokeColor=#ff0000;" vertex="1" parent="19whNfM4iRswAMx4-h0D-8">
          <mxGeometry x="150" y="85" width="120" height="50" as="geometry" />
        </mxCell>
        <mxCell id="19whNfM4iRswAMx4-h0D-10" value="" style="ellipse;html=1;shape=endState;fillColor=#000000;strokeColor=#ff0000;" vertex="1" parent="19whNfM4iRswAMx4-h0D-8">
          <mxGeometry x="300" y="420" width="30" height="30" as="geometry" />
        </mxCell>
        <mxCell id="19whNfM4iRswAMx4-h0D-11" value="Mostrar listado de encuentas&amp;nbsp;" style="rounded=1;whiteSpace=wrap;html=1;arcSize=40;fontColor=#000000;fillColor=#ffffc0;strokeColor=#ff0000;" vertex="1" parent="19whNfM4iRswAMx4-h0D-8">
          <mxGeometry x="151" y="250" width="120" height="50" as="geometry" />
        </mxCell>
        <mxCell id="19whNfM4iRswAMx4-h0D-12" style="edgeStyle=orthogonalEdgeStyle;rounded=0;orthogonalLoop=1;jettySize=auto;html=1;strokeColor=light-dark(#ff0000, #ededed);exitX=0.5;exitY=1;exitDx=0;exitDy=0;entryX=0.5;entryY=0;entryDx=0;entryDy=0;" edge="1" parent="19whNfM4iRswAMx4-h0D-8" source="19whNfM4iRswAMx4-h0D-9" target="19whNfM4iRswAMx4-h0D-11">
          <mxGeometry relative="1" as="geometry">
            <mxPoint x="-85" y="215" as="targetPoint" />
            <Array as="points">
              <mxPoint x="210" y="250" />
              <mxPoint x="210" y="250" />
            </Array>
          </mxGeometry>
        </mxCell>
        <mxCell id="19whNfM4iRswAMx4-h0D-13" style="edgeStyle=orthogonalEdgeStyle;rounded=0;orthogonalLoop=1;jettySize=auto;html=1;entryX=0.5;entryY=0;entryDx=0;entryDy=0;strokeColor=light-dark(#ff0000, #ededed);" edge="1" parent="19whNfM4iRswAMx4-h0D-8" source="19whNfM4iRswAMx4-h0D-11" target="19whNfM4iRswAMx4-h0D-10">
          <mxGeometry relative="1" as="geometry">
            <mxPoint x="-85" y="215" as="targetPoint" />
          </mxGeometry>
        </mxCell>
        <mxCell id="19whNfM4iRswAMx4-h0D-14" style="edgeStyle=orthogonalEdgeStyle;rounded=0;orthogonalLoop=1;jettySize=auto;html=1;strokeColor=light-dark(#ff0000, #ededed);entryX=0;entryY=0.5;entryDx=0;entryDy=0;exitX=0;exitY=0.5;exitDx=0;exitDy=0;" edge="1" parent="19whNfM4iRswAMx4-h0D-1" source="19whNfM4iRswAMx4-h0D-6" target="19whNfM4iRswAMx4-h0D-10">
          <mxGeometry relative="1" as="geometry">
            <mxPoint x="-10" y="110" as="sourcePoint" />
            <mxPoint x="450" y="410" as="targetPoint" />
            <Array as="points">
              <mxPoint x="60" y="110" />
              <mxPoint x="60" y="435" />
            </Array>
          </mxGeometry>
        </mxCell>
        <mxCell id="19whNfM4iRswAMx4-h0D-15" value="no" style="edgeLabel;html=1;align=center;verticalAlign=middle;resizable=0;points=[];" vertex="1" connectable="0" parent="19whNfM4iRswAMx4-h0D-14">
          <mxGeometry x="-0.9326" relative="1" as="geometry">
            <mxPoint as="offset" />
          </mxGeometry>
        </mxCell>
      </root>
    </mxGraphModel>
  </diagram>
</mxfile>
